<?xml version='1.0' encoding='UTF-8'?>
<mxfile host="Electron" version="25.0.2">
  <diagram name="Hub and Spoke Topology">
    <mxGraphModel dx="371" dy="1462" grid="0" gridSize="10" guides="1" tooltips="1" connect="1" arrows="1" fold="1" page="0" pageScale="1" pageWidth="827" pageHeight="1169" background="#ffffff" math="0" shadow="0">
      <root>
        <mxCell id="0"/>
        <mxCell id="1" parent="0"/>
        <mxCell id="hub_0_group" value="" style="group" vertex="1" connectable="0" parent="1">
          <mxGeometry x="470" y="20" width="400" height="70" as="geometry"/>
        </mxCell>
        <mxCell id="hub_0" style="shape=rectangle;rounded=0;whiteSpace=wrap;html=1;strokeColor=#0078D4;fontColor=#004578;fillColor=#E6F1FB;align=left" vertex="1" parent="hub_0_group" value="Subscription: Hub-Subscription&#10;hub-vnet&#10;10.0.0.0/16">
          <mxGeometry x="0" y="0" width="400" height="50" as="geometry"/>
        </mxCell>
        <mxCell id="hub_0_image" style="shape=image;html=1;image=img/lib/azure2/networking/Virtual_Networks.svg;" vertex="1" parent="hub_0">
          <mxGeometry x="374" y="3.39" width="20" height="20" as="geometry"/>
        </mxCell>
        <mxCell id="hub_0_expressroute_image" style="shape=image;html=1;image=img/lib/azure2/networking/ExpressRoute_Circuits.svg;" vertex="1" parent="hub_0">
          <mxGeometry x="349" y="3.39" width="20" height="20" as="geometry"/>
        </mxCell>
        <mxCell id="hub_0_firewall_image" style="shape=image;html=1;image=img/lib/azure2/networking/Firewalls.svg;" vertex="1" parent="hub_0">
          <mxGeometry x="324" y="3.39" width="20" height="20" as="geometry"/>
        </mxCell>
        <mxCell id="hub_0_vpn_image" style="shape=image;html=1;image=img/lib/azure2/networking/Virtual_Network_Gateways.svg;" vertex="1" parent="hub_0">
          <mxGeometry x="299" y="3.39" width="20" height="20" as="geometry"/>
        </mxCell>
        <mxCell id="right_spoke0_0_group" value="" style="group" vertex="1" connectable="0" parent="1">
          <mxGeometry x="920" y="70" width="400" height="70" as="geometry"/>
        </mxCell>
        <mxCell id="right_spoke0_0" style="shape=rectangle;rounded=0;whiteSpace=wrap;html=1;strokeColor=#CC6600;fontColor=#CC6600;fillColor=#f2f7fc;verticalAlign=top;align=left" vertex="1" parent="right_spoke0_0_group" value="Subscription: Spoke11-Subscription&#10;spoke11-vnet&#10;10.11.0.0/16">
          <mxGeometry x="0" y="0" width="400" height="50" as="geometry"/>
        </mxCell>
        <mxCell id="right_spoke0_0_image" style="shape=image;html=1;image=img/lib/azure2/networking/Virtual_Networks.svg;" vertex="1" parent="right_spoke0_0">
          <mxGeometry x="374" y="3.39" width="20" height="20" as="geometry"/>
        </mxCell>
        <mxCell id="edge_right_0_0" edge="1" source="hub_0" target="right_spoke0_0" style="edgeStyle=orthogonalEdgeStyle;rounded=1;strokeColor=#0078D4;strokeWidth=2;endArrow=block;startArrow=block;" parent="1">
          <mxGeometry relative="1" as="geometry">
            <Array as="points">
              <mxPoint x="770" y="95"/>
            </Array>
          </mxGeometry>
        </mxCell>
        <mxCell id="right_spoke0_1_group" value="" style="group" vertex="1" connectable="0" parent="1">
          <mxGeometry x="920" y="170" width="400" height="70" as="geometry"/>
        </mxCell>
        <mxCell id="right_spoke0_1" style="shape=rectangle;rounded=0;whiteSpace=wrap;html=1;strokeColor=#CC6600;fontColor=#CC6600;fillColor=#f2f7fc;verticalAlign=top;align=left" vertex="1" parent="right_spoke0_1_group" value="Subscription: Spoke12-Subscription&#10;spoke12-vnet&#10;10.12.0.0/16">
          <mxGeometry x="0" y="0" width="400" height="50" as="geometry"/>
        </mxCell>
        <mxCell id="right_spoke0_1_image" style="shape=image;html=1;image=img/lib/azure2/networking/Virtual_Networks.svg;" vertex="1" parent="right_spoke0_1">
          <mxGeometry x="374" y="3.39" width="20" height="20" as="geometry"/>
        </mxCell>
        <mxCell id="right_spoke0_1_firewall_image" style="shape=image;html=1;image=img/lib/azure2/networking/Firewalls.svg;" vertex="1" parent="right_spoke0_1">
          <mxGeometry x="349" y="3.39" width="20" height="20" as="geometry"/>
        </mxCell>
        <mxCell id="edge_right_0_1" edge="1" source="hub_0" target="right_spoke0_1" style="edgeStyle=orthogonalEdgeStyle;rounded=1;strokeColor=#0078D4;strokeWidth=2;endArrow=block;startArrow=block;" parent="1">
          <mxGeometry relative="1" as="geometry">
            <Array as="points">
              <mxPoint x="770" y="195"/>
            </Array>
          </mxGeometry>
        </mxCell>
        <mxCell id="right_spoke0_2_group" value="" style="group" vertex="1" connectable="0" parent="1">
          <mxGeometry x="920" y="270" width="400" height="70" as="geometry"/>
        </mxCell>
        <mxCell id="right_spoke0_2" style="shape=rectangle;rounded=0;whiteSpace=wrap;html=1;strokeColor=#CC6600;fontColor=#CC6600;fillColor=#f2f7fc;verticalAlign=top;align=left" vertex="1" parent="right_spoke0_2_group" value="Subscription: Spoke13-Subscription&#10;spoke13-vnet&#10;10.13.0.0/16">
          <mxGeometry x="0" y="0" width="400" height="50" as="geometry"/>
        </mxCell>
        <mxCell id="right_spoke0_2_image" style="shape=image;html=1;image=img/lib/azure2/networking/Virtual_Networks.svg;" vertex="1" parent="right_spoke0_2">
          <mxGeometry x="374" y="3.39" width="20" height="20" as="geometry"/>
        </mxCell>
        <mxCell id="edge_right_0_2" edge="1" source="hub_0" target="right_spoke0_2" style="edgeStyle=orthogonalEdgeStyle;rounded=1;strokeColor=#0078D4;strokeWidth=2;endArrow=block;startArrow=block;" parent="1">
          <mxGeometry relative="1" as="geometry">
            <Array as="points">
              <mxPoint x="770" y="295"/>
            </Array>
          </mxGeometry>
        </mxCell>
        <mxCell id="right_spoke0_3_group" value="" style="group" vertex="1" connectable="0" parent="1">
          <mxGeometry x="920" y="370" width="400" height="70" as="geometry"/>
        </mxCell>
        <mxCell id="right_spoke0_3" style="shape=rectangle;rounded=0;whiteSpace=wrap;html=1;strokeColor=#CC6600;fontColor=#CC6600;fillColor=#f2f7fc;verticalAlign=top;align=left" vertex="1" parent="right_spoke0_3_group" value="Subscription: Spoke14-Subscription&#10;spoke14-vnet&#10;10.14.0.0/16">
          <mxGeometry x="0" y="0" width="400" height="50" as="geometry"/>
        </mxCell>
        <mxCell id="right_spoke0_3_image" style="shape=image;html=1;image=img/lib/azure2/networking/Virtual_Networks.svg;" vertex="1" parent="right_spoke0_3">
          <mxGeometry x="374" y="3.39" width="20" height="20" as="geometry"/>
        </mxCell>
        <mxCell id="edge_right_0_3" edge="1" source="hub_0" target="right_spoke0_3" style="edgeStyle=orthogonalEdgeStyle;rounded=1;strokeColor=#0078D4;strokeWidth=2;endArrow=block;startArrow=block;" parent="1">
          <mxGeometry relative="1" as="geometry">
            <Array as="points">
              <mxPoint x="770" y="395"/>
            </Array>
          </mxGeometry>
        </mxCell>
        <mxCell id="right_spoke0_4_group" value="" style="group" vertex="1" connectable="0" parent="1">
          <mxGeometry x="920" y="470" width="400" height="70" as="geometry"/>
        </mxCell>
        <mxCell id="right_spoke0_4" style="shape=rectangle;rounded=0;whiteSpace=wrap;html=1;strokeColor=#CC6600;fontColor=#CC6600;fillColor=#f2f7fc;verticalAlign=top;align=left" vertex="1" parent="right_spoke0_4_group" value="Subscription: Spoke15-Subscription&#10;spoke15-vnet&#10;10.15.0.0/16">
          <mxGeometry x="0" y="0" width="400" height="50" as="geometry"/>
        </mxCell>
        <mxCell id="right_spoke0_4_image" style="shape=image;html=1;image=img/lib/azure2/networking/Virtual_Networks.svg;" vertex="1" parent="right_spoke0_4">
          <mxGeometry x="374" y="3.39" width="20" height="20" as="geometry"/>
        </mxCell>
        <mxCell id="edge_right_0_4" edge="1" source="hub_0" target="right_spoke0_4" style="edgeStyle=orthogonalEdgeStyle;rounded=1;strokeColor=#0078D4;strokeWidth=2;endArrow=block;startArrow=block;" parent="1">
          <mxGeometry relative="1" as="geometry">
            <Array as="points">
              <mxPoint x="770" y="495"/>
            </Array>
          </mxGeometry>
        </mxCell>
        <mxCell id="right_spoke0_5_group" value="" style="group" vertex="1" connectable="0" parent="1">
          <mxGeometry x="920" y="570" width="400" height="70" as="geometry"/>
        </mxCell>
        <mxCell id="right_spoke0_5" style="shape=rectangle;rounded=0;whiteSpace=wrap;html=1;strokeColor=#CC6600;fontColor=#CC6600;fillColor=#f2f7fc;verticalAlign=top;align=left" vertex="1" parent="right_spoke0_5_group" value="Subscription: Spoke16-Subscription&#10;spoke16-vnet&#10;10.16.0.0/16">
          <mxGeometry x="0" y="0" width="400" height="50" as="geometry"/>
        </mxCell>
        <mxCell id="right_spoke0_5_image" style="shape=image;html=1;image=img/lib/azure2/networking/Virtual_Networks.svg;" vertex="1" parent="right_spoke0_5">
          <mxGeometry x="374" y="3.39" width="20" height="20" as="geometry"/>
        </mxCell>
        <mxCell id="edge_right_0_5" edge="1" source="hub_0" target="right_spoke0_5" style="edgeStyle=orthogonalEdgeStyle;rounded=1;strokeColor=#0078D4;strokeWidth=2;endArrow=block;startArrow=block;" parent="1">
          <mxGeometry relative="1" as="geometry">
            <Array as="points">
              <mxPoint x="770" y="595"/>
            </Array>
          </mxGeometry>
        </mxCell>
        <mxCell id="right_spoke0_6_group" value="" style="group" vertex="1" connectable="0" parent="1">
          <mxGeometry x="920" y="670" width="400" height="70" as="geometry"/>
        </mxCell>
        <mxCell id="right_spoke0_6" style="shape=rectangle;rounded=0;whiteSpace=wrap;html=1;strokeColor=#CC6600;fontColor=#CC6600;fillColor=#f2f7fc;verticalAlign=top;align=left" vertex="1" parent="right_spoke0_6_group" value="Subscription: Spoke17-Subscription&#10;spoke17-vnet&#10;10.17.0.0/16">
          <mxGeometry x="0" y="0" width="400" height="50" as="geometry"/>
        </mxCell>
        <mxCell id="right_spoke0_6_image" style="shape=image;html=1;image=img/lib/azure2/networking/Virtual_Networks.svg;" vertex="1" parent="right_spoke0_6">
          <mxGeometry x="374" y="3.39" width="20" height="20" as="geometry"/>
        </mxCell>
        <mxCell id="edge_right_0_6" edge="1" source="hub_0" target="right_spoke0_6" style="edgeStyle=orthogonalEdgeStyle;rounded=1;strokeColor=#0078D4;strokeWidth=2;endArrow=block;startArrow=block;" parent="1">
          <mxGeometry relative="1" as="geometry">
            <Array as="points">
              <mxPoint x="770" y="695"/>
            </Array>
          </mxGeometry>
        </mxCell>
        <mxCell id="right_spoke0_7_group" value="" style="group" vertex="1" connectable="0" parent="1">
          <mxGeometry x="920" y="770" width="400" height="70" as="geometry"/>
        </mxCell>
        <mxCell id="right_spoke0_7" style="shape=rectangle;rounded=0;whiteSpace=wrap;html=1;strokeColor=#CC6600;fontColor=#CC6600;fillColor=#f2f7fc;verticalAlign=top;align=left" vertex="1" parent="right_spoke0_7_group" value="Subscription: Spoke18-Subscription&#10;spoke18-vnet&#10;10.18.0.0/16">
          <mxGeometry x="0" y="0" width="400" height="50" as="geometry"/>
        </mxCell>
        <mxCell id="right_spoke0_7_image" style="shape=image;html=1;image=img/lib/azure2/networking/Virtual_Networks.svg;" vertex="1" parent="right_spoke0_7">
          <mxGeometry x="374" y="3.39" width="20" height="20" as="geometry"/>
        </mxCell>
        <mxCell id="edge_right_0_7" edge="1" source="hub_0" target="right_spoke0_7" style="edgeStyle=orthogonalEdgeStyle;rounded=1;strokeColor=#0078D4;strokeWidth=2;endArrow=block;startArrow=block;" parent="1">
          <mxGeometry relative="1" as="geometry">
            <Array as="points">
              <mxPoint x="770" y="795"/>
            </Array>
          </mxGeometry>
        </mxCell>
        <mxCell id="right_spoke0_8_group" value="" style="group" vertex="1" connectable="0" parent="1">
          <mxGeometry x="920" y="870" width="400" height="70" as="geometry"/>
        </mxCell>
        <mxCell id="right_spoke0_8" style="shape=rectangle;rounded=0;whiteSpace=wrap;html=1;strokeColor=#CC6600;fontColor=#CC6600;fillColor=#f2f7fc;verticalAlign=top;align=left" vertex="1" parent="right_spoke0_8_group" value="Subscription: Spoke19-Subscription&#10;spoke19-vnet&#10;10.19.0.0/16">
          <mxGeometry x="0" y="0" width="400" height="50" as="geometry"/>
        </mxCell>
        <mxCell id="right_spoke0_8_image" style="shape=image;html=1;image=img/lib/azure2/networking/Virtual_Networks.svg;" vertex="1" parent="right_spoke0_8">
          <mxGeometry x="374" y="3.39" width="20" height="20" as="geometry"/>
        </mxCell>
        <mxCell id="edge_right_0_8" edge="1" source="hub_0" target="right_spoke0_8" style="edgeStyle=orthogonalEdgeStyle;rounded=1;strokeColor=#0078D4;strokeWidth=2;endArrow=block;startArrow=block;" parent="1">
          <mxGeometry relative="1" as="geometry">
            <Array as="points">
              <mxPoint x="770" y="895"/>
            </Array>
          </mxGeometry>
        </mxCell>
        <mxCell id="right_spoke0_9_group" value="" style="group" vertex="1" connectable="0" parent="1">
          <mxGeometry x="920" y="970" width="400" height="70" as="geometry"/>
        </mxCell>
        <mxCell id="right_spoke0_9" style="shape=rectangle;rounded=0;whiteSpace=wrap;html=1;strokeColor=#CC6600;fontColor=#CC6600;fillColor=#f2f7fc;verticalAlign=top;align=left" vertex="1" parent="right_spoke0_9_group" value="Subscription: Spoke20-Subscription&#10;spoke20-vnet&#10;10.20.0.0/16">
          <mxGeometry x="0" y="0" width="400" height="50" as="geometry"/>
        </mxCell>
        <mxCell id="right_spoke0_9_image" style="shape=image;html=1;image=img/lib/azure2/networking/Virtual_Networks.svg;" vertex="1" parent="right_spoke0_9">
          <mxGeometry x="374" y="3.39" width="20" height="20" as="geometry"/>
        </mxCell>
        <mxCell id="edge_right_0_9" edge="1" source="hub_0" target="right_spoke0_9" style="edgeStyle=orthogonalEdgeStyle;rounded=1;strokeColor=#0078D4;strokeWidth=2;endArrow=block;startArrow=block;" parent="1">
          <mxGeometry relative="1" as="geometry">
            <Array as="points">
              <mxPoint x="770" y="995"/>
            </Array>
          </mxGeometry>
        </mxCell>
        <mxCell id="left_spoke0_0_group" value="" style="group" vertex="1" connectable="0" parent="1">
          <mxGeometry x="20" y="70" width="400" height="70" as="geometry"/>
        </mxCell>
        <mxCell id="left_spoke0_0" style="shape=rectangle;rounded=0;whiteSpace=wrap;html=1;strokeColor=#CC6600;fontColor=#CC6600;fillColor=#f2f7fc;verticalAlign=top;align=left" vertex="1" parent="left_spoke0_0_group" value="Subscription: Spoke1-Subscription&#10;spoke1-vnet&#10;10.1.0.0/16">
          <mxGeometry x="0" y="0" width="400" height="50" as="geometry"/>
        </mxCell>
        <mxCell id="left_spoke0_0_image" style="shape=image;html=1;image=img/lib/azure2/networking/Virtual_Networks.svg;" vertex="1" parent="left_spoke0_0">
          <mxGeometry x="374" y="3.39" width="20" height="20" as="geometry"/>
        </mxCell>
        <mxCell id="edge_left_0_0" edge="1" source="hub_0" target="left_spoke0_0" style="edgeStyle=orthogonalEdgeStyle;rounded=1;strokeColor=#0078D4;strokeWidth=2;endArrow=block;startArrow=block;" parent="1">
          <mxGeometry relative="1" as="geometry">
            <Array as="points">
              <mxPoint x="570" y="95"/>
            </Array>
          </mxGeometry>
        </mxCell>
        <mxCell id="left_spoke0_1_group" value="" style="group" vertex="1" connectable="0" parent="1">
          <mxGeometry x="20" y="170" width="400" height="70" as="geometry"/>
        </mxCell>
        <mxCell id="left_spoke0_1" style="shape=rectangle;rounded=0;whiteSpace=wrap;html=1;strokeColor=#CC6600;fontColor=#CC6600;fillColor=#f2f7fc;verticalAlign=top;align=left" vertex="1" parent="left_spoke0_1_group" value="Subscription: Spoke2-Subscription&#10;spoke2-vnet&#10;10.2.0.0/16">
          <mxGeometry x="0" y="0" width="400" height="50" as="geometry"/>
        </mxCell>
        <mxCell id="left_spoke0_1_image" style="shape=image;html=1;image=img/lib/azure2/networking/Virtual_Networks.svg;" vertex="1" parent="left_spoke0_1">
          <mxGeometry x="374" y="3.39" width="20" height="20" as="geometry"/>
        </mxCell>
        <mxCell id="edge_left_0_1" edge="1" source="hub_0" target="left_spoke0_1" style="edgeStyle=orthogonalEdgeStyle;rounded=1;strokeColor=#0078D4;strokeWidth=2;endArrow=block;startArrow=block;" parent="1">
          <mxGeometry relative="1" as="geometry">
            <Array as="points">
              <mxPoint x="570" y="195"/>
            </Array>
          </mxGeometry>
        </mxCell>
        <mxCell id="left_spoke0_2_group" value="" style="group" vertex="1" connectable="0" parent="1">
          <mxGeometry x="20" y="270" width="400" height="70" as="geometry"/>
        </mxCell>
        <mxCell id="left_spoke0_2" style="shape=rectangle;rounded=0;whiteSpace=wrap;html=1;strokeColor=#CC6600;fontColor=#CC6600;fillColor=#f2f7fc;verticalAlign=top;align=left" vertex="1" parent="left_spoke0_2_group" value="Subscription: Spoke3-Subscription&#10;spoke3-vnet&#10;10.3.0.0/16">
          <mxGeometry x="0" y="0" width="400" height="50" as="geometry"/>
        </mxCell>
        <mxCell id="left_spoke0_2_image" style="shape=image;html=1;image=img/lib/azure2/networking/Virtual_Networks.svg;" vertex="1" parent="left_spoke0_2">
          <mxGeometry x="374" y="3.39" width="20" height="20" as="geometry"/>
        </mxCell>
        <mxCell id="edge_left_0_2" edge="1" source="hub_0" target="left_spoke0_2" style="edgeStyle=orthogonalEdgeStyle;rounded=1;strokeColor=#0078D4;strokeWidth=2;endArrow=block;startArrow=block;" parent="1">
          <mxGeometry relative="1" as="geometry">
            <Array as="points">
              <mxPoint x="570" y="295"/>
            </Array>
          </mxGeometry>
        </mxCell>
        <mxCell id="left_spoke0_3_group" value="" style="group" vertex="1" connectable="0" parent="1">
          <mxGeometry x="20" y="370" width="400" height="70" as="geometry"/>
        </mxCell>
        <mxCell id="left_spoke0_3" style="shape=rectangle;rounded=0;whiteSpace=wrap;html=1;strokeColor=#CC6600;fontColor=#CC6600;fillColor=#f2f7fc;verticalAlign=top;align=left" vertex="1" parent="left_spoke0_3_group" value="Subscription: Spoke4-Subscription&#10;spoke4-vnet&#10;10.4.0.0/16">
          <mxGeometry x="0" y="0" width="400" height="50" as="geometry"/>
        </mxCell>
        <mxCell id="left_spoke0_3_image" style="shape=image;html=1;image=img/lib/azure2/networking/Virtual_Networks.svg;" vertex="1" parent="left_spoke0_3">
          <mxGeometry x="374" y="3.39" width="20" height="20" as="geometry"/>
        </mxCell>
        <mxCell id="edge_left_0_3" edge="1" source="hub_0" target="left_spoke0_3" style="edgeStyle=orthogonalEdgeStyle;rounded=1;strokeColor=#0078D4;strokeWidth=2;endArrow=block;startArrow=block;" parent="1">
          <mxGeometry relative="1" as="geometry">
            <Array as="points">
              <mxPoint x="570" y="395"/>
            </Array>
          </mxGeometry>
        </mxCell>
        <mxCell id="left_spoke0_4_group" value="" style="group" vertex="1" connectable="0" parent="1">
          <mxGeometry x="20" y="470" width="400" height="70" as="geometry"/>
        </mxCell>
        <mxCell id="left_spoke0_4" style="shape=rectangle;rounded=0;whiteSpace=wrap;html=1;strokeColor=#CC6600;fontColor=#CC6600;fillColor=#f2f7fc;verticalAlign=top;align=left" vertex="1" parent="left_spoke0_4_group" value="Subscription: Spoke5-Subscription&#10;spoke5-vnet&#10;10.5.0.0/16">
          <mxGeometry x="0" y="0" width="400" height="50" as="geometry"/>
        </mxCell>
        <mxCell id="left_spoke0_4_image" style="shape=image;html=1;image=img/lib/azure2/networking/Virtual_Networks.svg;" vertex="1" parent="left_spoke0_4">
          <mxGeometry x="374" y="3.39" width="20" height="20" as="geometry"/>
        </mxCell>
        <mxCell id="edge_left_0_4" edge="1" source="hub_0" target="left_spoke0_4" style="edgeStyle=orthogonalEdgeStyle;rounded=1;strokeColor=#0078D4;strokeWidth=2;endArrow=block;startArrow=block;" parent="1">
          <mxGeometry relative="1" as="geometry">
            <Array as="points">
              <mxPoint x="570" y="495"/>
            </Array>
          </mxGeometry>
        </mxCell>
        <mxCell id="left_spoke0_5_group" value="" style="group" vertex="1" connectable="0" parent="1">
          <mxGeometry x="20" y="570" width="400" height="70" as="geometry"/>
        </mxCell>
        <mxCell id="left_spoke0_5" style="shape=rectangle;rounded=0;whiteSpace=wrap;html=1;strokeColor=#CC6600;fontColor=#CC6600;fillColor=#f2f7fc;verticalAlign=top;align=left" vertex="1" parent="left_spoke0_5_group" value="Subscription: Spoke6-Subscription&#10;spoke6-vnet&#10;10.6.0.0/16">
          <mxGeometry x="0" y="0" width="400" height="50" as="geometry"/>
        </mxCell>
        <mxCell id="left_spoke0_5_image" style="shape=image;html=1;image=img/lib/azure2/networking/Virtual_Networks.svg;" vertex="1" parent="left_spoke0_5">
          <mxGeometry x="374" y="3.39" width="20" height="20" as="geometry"/>
        </mxCell>
        <mxCell id="left_spoke0_5_vpn_image" style="shape=image;html=1;image=img/lib/azure2/networking/Virtual_Network_Gateways.svg;" vertex="1" parent="left_spoke0_5">
          <mxGeometry x="349" y="3.39" width="20" height="20" as="geometry"/>
        </mxCell>
        <mxCell id="edge_left_0_5" edge="1" source="hub_0" target="left_spoke0_5" style="edgeStyle=orthogonalEdgeStyle;rounded=1;strokeColor=#0078D4;strokeWidth=2;endArrow=block;startArrow=block;" parent="1">
          <mxGeometry relative="1" as="geometry">
            <Array as="points">
              <mxPoint x="570" y="595"/>
            </Array>
          </mxGeometry>
        </mxCell>
        <mxCell id="left_spoke0_6_group" value="" style="group" vertex="1" connectable="0" parent="1">
          <mxGeometry x="20" y="670" width="400" height="70" as="geometry"/>
        </mxCell>
        <mxCell id="left_spoke0_6" style="shape=rectangle;rounded=0;whiteSpace=wrap;html=1;strokeColor=#CC6600;fontColor=#CC6600;fillColor=#f2f7fc;verticalAlign=top;align=left" vertex="1" parent="left_spoke0_6_group" value="Subscription: Spoke7-Subscription&#10;spoke7-vnet&#10;10.7.0.0/16">
          <mxGeometry x="0" y="0" width="400" height="50" as="geometry"/>
        </mxCell>
        <mxCell id="left_spoke0_6_image" style="shape=image;html=1;image=img/lib/azure2/networking/Virtual_Networks.svg;" vertex="1" parent="left_spoke0_6">
          <mxGeometry x="374" y="3.39" width="20" height="20" as="geometry"/>
        </mxCell>
        <mxCell id="edge_left_0_6" edge="1" source="hub_0" target="left_spoke0_6" style="edgeStyle=orthogonalEdgeStyle;rounded=1;strokeColor=#0078D4;strokeWidth=2;endArrow=block;startArrow=block;" parent="1">
          <mxGeometry relative="1" as="geometry">
            <Array as="points">
              <mxPoint x="570" y="695"/>
            </Array>
          </mxGeometry>
        </mxCell>
        <mxCell id="left_spoke0_7_group" value="" style="group" vertex="1" connectable="0" parent="1">
          <mxGeometry x="20" y="770" width="400" height="70" as="geometry"/>
        </mxCell>
        <mxCell id="left_spoke0_7" style="shape=rectangle;rounded=0;whiteSpace=wrap;html=1;strokeColor=#CC6600;fontColor=#CC6600;fillColor=#f2f7fc;verticalAlign=top;align=left" vertex="1" parent="left_spoke0_7_group" value="Subscription: Spoke8-Subscription&#10;spoke8-vnet&#10;10.8.0.0/16">
          <mxGeometry x="0" y="0" width="400" height="50" as="geometry"/>
        </mxCell>
        <mxCell id="left_spoke0_7_image" style="shape=image;html=1;image=img/lib/azure2/networking/Virtual_Networks.svg;" vertex="1" parent="left_spoke0_7">
          <mxGeometry x="374" y="3.39" width="20" height="20" as="geometry"/>
        </mxCell>
        <mxCell id="edge_left_0_7" edge="1" source="hub_0" target="left_spoke0_7" style="edgeStyle=orthogonalEdgeStyle;rounded=1;strokeColor=#0078D4;strokeWidth=2;endArrow=block;startArrow=block;" parent="1">
          <mxGeometry relative="1" as="geometry">
            <Array as="points">
              <mxPoint x="570" y="795"/>
            </Array>
          </mxGeometry>
        </mxCell>
        <mxCell id="left_spoke0_8_group" value="" style="group" vertex="1" connectable="0" parent="1">
          <mxGeometry x="20" y="870" width="400" height="70" as="geometry"/>
        </mxCell>
        <mxCell id="left_spoke0_8" style="shape=rectangle;rounded=0;whiteSpace=wrap;html=1;strokeColor=#CC6600;fontColor=#CC6600;fillColor=#f2f7fc;verticalAlign=top;align=left" vertex="1" parent="left_spoke0_8_group" value="Subscription: Spoke9-Subscription&#10;spoke9-vnet&#10;10.9.0.0/16">
          <mxGeometry x="0" y="0" width="400" height="50" as="geometry"/>
        </mxCell>
        <mxCell id="left_spoke0_8_image" style="shape=image;html=1;image=img/lib/azure2/networking/Virtual_Networks.svg;" vertex="1" parent="left_spoke0_8">
          <mxGeometry x="374" y="3.39" width="20" height="20" as="geometry"/>
        </mxCell>
        <mxCell id="edge_left_0_8" edge="1" source="hub_0" target="left_spoke0_8" style="edgeStyle=orthogonalEdgeStyle;rounded=1;strokeColor=#0078D4;strokeWidth=2;endArrow=block;startArrow=block;" parent="1">
          <mxGeometry relative="1" as="geometry">
            <Array as="points">
              <mxPoint x="570" y="895"/>
            </Array>
          </mxGeometry>
        </mxCell>
        <mxCell id="left_spoke0_9_group" value="" style="group" vertex="1" connectable="0" parent="1">
          <mxGeometry x="20" y="970" width="400" height="70" as="geometry"/>
        </mxCell>
        <mxCell id="left_spoke0_9" style="shape=rectangle;rounded=0;whiteSpace=wrap;html=1;strokeColor=#CC6600;fontColor=#CC6600;fillColor=#f2f7fc;verticalAlign=top;align=left" vertex="1" parent="left_spoke0_9_group" value="Subscription: Spoke10-Subscription&#10;spoke10-vnet&#10;10.10.0.0/16">
          <mxGeometry x="0" y="0" width="400" height="50" as="geometry"/>
        </mxCell>
        <mxCell id="left_spoke0_9_image" style="shape=image;html=1;image=img/lib/azure2/networking/Virtual_Networks.svg;" vertex="1" parent="left_spoke0_9">
          <mxGeometry x="374" y="3.39" width="20" height="20" as="geometry"/>
        </mxCell>
        <mxCell id="edge_left_0_9" edge="1" source="hub_0" target="left_spoke0_9" style="edgeStyle=orthogonalEdgeStyle;rounded=1;strokeColor=#0078D4;strokeWidth=2;endArrow=block;startArrow=block;" parent="1">
          <mxGeometry relative="1" as="geometry">
            <Array as="points">
              <mxPoint x="570" y="995"/>
            </Array>
          </mxGeometry>
        </mxCell>
        <mxCell id="hub_1_group" value="" style="group" vertex="1" connectable="0" parent="1">
          <mxGeometry x="2270" y="20" width="400" height="70" as="geometry"/>
        </mxCell>
        <mxCell id="hub_1" style="shape=rectangle;rounded=0;whiteSpace=wrap;html=1;strokeColor=#0078D4;fontColor=#004578;fillColor=#E6F1FB;align=left" vertex="1" parent="hub_1_group" value="Subscription: Hub2-Subscription&#10;hub2-vnet&#10;10.100.0.0/16">
          <mxGeometry x="0" y="0" width="400" height="50" as="geometry"/>
        </mxCell>
        <mxCell id="hub_1_image" style="shape=image;html=1;image=img/lib/azure2/networking/Virtual_Networks.svg;" vertex="1" parent="hub_1">
          <mxGeometry x="374" y="3.39" width="20" height="20" as="geometry"/>
        </mxCell>
        <mxCell id="hub_1_expressroute_image" style="shape=image;html=1;image=img/lib/azure2/networking/ExpressRoute_Circuits.svg;" vertex="1" parent="hub_1">
          <mxGeometry x="349" y="3.39" width="20" height="20" as="geometry"/>
        </mxCell>
        <mxCell id="hub_1_firewall_image" style="shape=image;html=1;image=img/lib/azure2/networking/Firewalls.svg;" vertex="1" parent="hub_1">
          <mxGeometry x="324" y="3.39" width="20" height="20" as="geometry"/>
        </mxCell>
        <mxCell id="hub_1_vpn_image" style="shape=image;html=1;image=img/lib/azure2/networking/Virtual_Network_Gateways.svg;" vertex="1" parent="hub_1">
          <mxGeometry x="299" y="3.39" width="20" height="20" as="geometry"/>
        </mxCell>
        <mxCell id="right_spoke1_0_group" value="" style="group" vertex="1" connectable="0" parent="1">
          <mxGeometry x="2720" y="70" width="400" height="70" as="geometry"/>
        </mxCell>
        <mxCell id="right_spoke1_0" style="shape=rectangle;rounded=0;whiteSpace=wrap;html=1;strokeColor=#CC6600;fontColor=#CC6600;fillColor=#f2f7fc;verticalAlign=top;align=left" vertex="1" parent="right_spoke1_0_group" value="Subscription: Spoke27-Subscription&#10;spoke27-vnet&#10;10.27.0.0/16">
          <mxGeometry x="0" y="0" width="400" height="50" as="geometry"/>
        </mxCell>
        <mxCell id="right_spoke1_0_image" style="shape=image;html=1;image=img/lib/azure2/networking/Virtual_Networks.svg;" vertex="1" parent="right_spoke1_0">
          <mxGeometry x="374" y="3.39" width="20" height="20" as="geometry"/>
        </mxCell>
        <mxCell id="edge_right_1_0" edge="1" source="hub_1" target="right_spoke1_0" style="edgeStyle=orthogonalEdgeStyle;rounded=1;strokeColor=#0078D4;strokeWidth=2;endArrow=block;startArrow=block;" parent="1">
          <mxGeometry relative="1" as="geometry">
            <Array as="points">
              <mxPoint x="2570" y="95"/>
            </Array>
          </mxGeometry>
        </mxCell>
        <mxCell id="right_spoke1_1_group" value="" style="group" vertex="1" connectable="0" parent="1">
          <mxGeometry x="2720" y="170" width="400" height="70" as="geometry"/>
        </mxCell>
        <mxCell id="right_spoke1_1" style="shape=rectangle;rounded=0;whiteSpace=wrap;html=1;strokeColor=#CC6600;fontColor=#CC6600;fillColor=#f2f7fc;verticalAlign=top;align=left" vertex="1" parent="right_spoke1_1_group" value="Subscription: Spoke28-Subscription&#10;spoke28-vnet&#10;10.28.0.0/16">
          <mxGeometry x="0" y="0" width="400" height="50" as="geometry"/>
        </mxCell>
        <mxCell id="right_spoke1_1_image" style="shape=image;html=1;image=img/lib/azure2/networking/Virtual_Networks.svg;" vertex="1" parent="right_spoke1_1">
          <mxGeometry x="374" y="3.39" width="20" height="20" as="geometry"/>
        </mxCell>
        <mxCell id="edge_right_1_1" edge="1" source="hub_1" target="right_spoke1_1" style="edgeStyle=orthogonalEdgeStyle;rounded=1;strokeColor=#0078D4;strokeWidth=2;endArrow=block;startArrow=block;" parent="1">
          <mxGeometry relative="1" as="geometry">
            <Array as="points">
              <mxPoint x="2570" y="195"/>
            </Array>
          </mxGeometry>
        </mxCell>
        <mxCell id="right_spoke1_2_group" value="" style="group" vertex="1" connectable="0" parent="1">
          <mxGeometry x="2720" y="270" width="400" height="70" as="geometry"/>
        </mxCell>
        <mxCell id="right_spoke1_2" style="shape=rectangle;rounded=0;whiteSpace=wrap;html=1;strokeColor=#CC6600;fontColor=#CC6600;fillColor=#f2f7fc;verticalAlign=top;align=left" vertex="1" parent="right_spoke1_2_group" value="Subscription: Spoke29-Subscription&#10;spoke29-vnet&#10;10.29.0.0/16">
          <mxGeometry x="0" y="0" width="400" height="50" as="geometry"/>
        </mxCell>
        <mxCell id="right_spoke1_2_image" style="shape=image;html=1;image=img/lib/azure2/networking/Virtual_Networks.svg;" vertex="1" parent="right_spoke1_2">
          <mxGeometry x="374" y="3.39" width="20" height="20" as="geometry"/>
        </mxCell>
        <mxCell id="edge_right_1_2" edge="1" source="hub_1" target="right_spoke1_2" style="edgeStyle=orthogonalEdgeStyle;rounded=1;strokeColor=#0078D4;strokeWidth=2;endArrow=block;startArrow=block;" parent="1">
          <mxGeometry relative="1" as="geometry">
            <Array as="points">
              <mxPoint x="2570" y="295"/>
            </Array>
          </mxGeometry>
        </mxCell>
        <mxCell id="right_spoke1_3_group" value="" style="group" vertex="1" connectable="0" parent="1">
          <mxGeometry x="2720" y="370" width="400" height="70" as="geometry"/>
        </mxCell>
        <mxCell id="right_spoke1_3" style="shape=rectangle;rounded=0;whiteSpace=wrap;html=1;strokeColor=#CC6600;fontColor=#CC6600;fillColor=#f2f7fc;verticalAlign=top;align=left" vertex="1" parent="right_spoke1_3_group" value="Subscription: Spoke30-Subscription&#10;spoke30-vnet&#10;10.30.0.0/16">
          <mxGeometry x="0" y="0" width="400" height="50" as="geometry"/>
        </mxCell>
        <mxCell id="right_spoke1_3_image" style="shape=image;html=1;image=img/lib/azure2/networking/Virtual_Networks.svg;" vertex="1" parent="right_spoke1_3">
          <mxGeometry x="374" y="3.39" width="20" height="20" as="geometry"/>
        </mxCell>
        <mxCell id="edge_right_1_3" edge="1" source="hub_1" target="right_spoke1_3" style="edgeStyle=orthogonalEdgeStyle;rounded=1;strokeColor=#0078D4;strokeWidth=2;endArrow=block;startArrow=block;" parent="1">
          <mxGeometry relative="1" as="geometry">
            <Array as="points">
              <mxPoint x="2570" y="395"/>
            </Array>
          </mxGeometry>
        </mxCell>
        <mxCell id="right_spoke1_4_group" value="" style="group" vertex="1" connectable="0" parent="1">
          <mxGeometry x="2720" y="470" width="400" height="70" as="geometry"/>
        </mxCell>
        <mxCell id="right_spoke1_4" style="shape=rectangle;rounded=0;whiteSpace=wrap;html=1;strokeColor=#CC6600;fontColor=#CC6600;fillColor=#f2f7fc;verticalAlign=top;align=left" vertex="1" parent="right_spoke1_4_group" value="Subscription: Spoke31-Subscription&#10;spoke31-vnet&#10;10.31.0.0/16">
          <mxGeometry x="0" y="0" width="400" height="50" as="geometry"/>
        </mxCell>
        <mxCell id="right_spoke1_4_image" style="shape=image;html=1;image=img/lib/azure2/networking/Virtual_Networks.svg;" vertex="1" parent="right_spoke1_4">
          <mxGeometry x="374" y="3.39" width="20" height="20" as="geometry"/>
        </mxCell>
        <mxCell id="right_spoke1_4_firewall_image" style="shape=image;html=1;image=img/lib/azure2/networking/Firewalls.svg;" vertex="1" parent="right_spoke1_4">
          <mxGeometry x="349" y="3.39" width="20" height="20" as="geometry"/>
        </mxCell>
        <mxCell id="edge_right_1_4" edge="1" source="hub_1" target="right_spoke1_4" style="edgeStyle=orthogonalEdgeStyle;rounded=1;strokeColor=#0078D4;strokeWidth=2;endArrow=block;startArrow=block;" parent="1">
          <mxGeometry relative="1" as="geometry">
            <Array as="points">
              <mxPoint x="2570" y="495"/>
            </Array>
          </mxGeometry>
        </mxCell>
        <mxCell id="left_spoke1_0_group" value="" style="group" vertex="1" connectable="0" parent="1">
          <mxGeometry x="1820" y="70" width="400" height="70" as="geometry"/>
        </mxCell>
        <mxCell id="left_spoke1_0" style="shape=rectangle;rounded=0;whiteSpace=wrap;html=1;strokeColor=#CC6600;fontColor=#CC6600;fillColor=#f2f7fc;verticalAlign=top;align=left" vertex="1" parent="left_spoke1_0_group" value="Subscription: Spoke21-Subscription&#10;spoke21-vnet&#10;10.21.0.0/16">
          <mxGeometry x="0" y="0" width="400" height="50" as="geometry"/>
        </mxCell>
        <mxCell id="left_spoke1_0_image" style="shape=image;html=1;image=img/lib/azure2/networking/Virtual_Networks.svg;" vertex="1" parent="left_spoke1_0">
          <mxGeometry x="374" y="3.39" width="20" height="20" as="geometry"/>
        </mxCell>
        <mxCell id="edge_left_1_0" edge="1" source="hub_1" target="left_spoke1_0" style="edgeStyle=orthogonalEdgeStyle;rounded=1;strokeColor=#0078D4;strokeWidth=2;endArrow=block;startArrow=block;" parent="1">
          <mxGeometry relative="1" as="geometry">
            <Array as="points">
              <mxPoint x="2370" y="95"/>
            </Array>
          </mxGeometry>
        </mxCell>
        <mxCell id="left_spoke1_1_group" value="" style="group" vertex="1" connectable="0" parent="1">
          <mxGeometry x="1820" y="170" width="400" height="70" as="geometry"/>
        </mxCell>
        <mxCell id="left_spoke1_1" style="shape=rectangle;rounded=0;whiteSpace=wrap;html=1;strokeColor=#CC6600;fontColor=#CC6600;fillColor=#f2f7fc;verticalAlign=top;align=left" vertex="1" parent="left_spoke1_1_group" value="Subscription: Spoke22-Subscription&#10;spoke22-vnet&#10;10.22.0.0/16">
          <mxGeometry x="0" y="0" width="400" height="50" as="geometry"/>
        </mxCell>
        <mxCell id="left_spoke1_1_image" style="shape=image;html=1;image=img/lib/azure2/networking/Virtual_Networks.svg;" vertex="1" parent="left_spoke1_1">
          <mxGeometry x="374" y="3.39" width="20" height="20" as="geometry"/>
        </mxCell>
        <mxCell id="edge_left_1_1" edge="1" source="hub_1" target="left_spoke1_1" style="edgeStyle=orthogonalEdgeStyle;rounded=1;strokeColor=#0078D4;strokeWidth=2;endArrow=block;startArrow=block;" parent="1">
          <mxGeometry relative="1" as="geometry">
            <Array as="points">
              <mxPoint x="2370" y="195"/>
            </Array>
          </mxGeometry>
        </mxCell>
        <mxCell id="left_spoke1_2_group" value="" style="group" vertex="1" connectable="0" parent="1">
          <mxGeometry x="1820" y="270" width="400" height="70" as="geometry"/>
        </mxCell>
        <mxCell id="left_spoke1_2" style="shape=rectangle;rounded=0;whiteSpace=wrap;html=1;strokeColor=#CC6600;fontColor=#CC6600;fillColor=#f2f7fc;verticalAlign=top;align=left" vertex="1" parent="left_spoke1_2_group" value="Subscription: Spoke23-Subscription&#10;spoke23-vnet&#10;10.23.0.0/16">
          <mxGeometry x="0" y="0" width="400" height="50" as="geometry"/>
        </mxCell>
        <mxCell id="left_spoke1_2_image" style="shape=image;html=1;image=img/lib/azure2/networking/Virtual_Networks.svg;" vertex="1" parent="left_spoke1_2">
          <mxGeometry x="374" y="3.39" width="20" height="20" as="geometry"/>
        </mxCell>
        <mxCell id="edge_left_1_2" edge="1" source="hub_1" target="left_spoke1_2" style="edgeStyle=orthogonalEdgeStyle;rounded=1;strokeColor=#0078D4;strokeWidth=2;endArrow=block;startArrow=block;" parent="1">
          <mxGeometry relative="1" as="geometry">
            <Array as="points">
              <mxPoint x="2370" y="295"/>
            </Array>
          </mxGeometry>
        </mxCell>
        <mxCell id="left_spoke1_3_group" value="" style="group" vertex="1" connectable="0" parent="1">
          <mxGeometry x="1820" y="370" width="400" height="70" as="geometry"/>
        </mxCell>
        <mxCell id="left_spoke1_3" style="shape=rectangle;rounded=0;whiteSpace=wrap;html=1;strokeColor=#CC6600;fontColor=#CC6600;fillColor=#f2f7fc;verticalAlign=top;align=left" vertex="1" parent="left_spoke1_3_group" value="Subscription: Spoke24-Subscription&#10;spoke24-vnet&#10;10.24.0.0/16">
          <mxGeometry x="0" y="0" width="400" height="50" as="geometry"/>
        </mxCell>
        <mxCell id="left_spoke1_3_image" style="shape=image;html=1;image=img/lib/azure2/networking/Virtual_Networks.svg;" vertex="1" parent="left_spoke1_3">
          <mxGeometry x="374" y="3.39" width="20" height="20" as="geometry"/>
        </mxCell>
        <mxCell id="edge_left_1_3" edge="1" source="hub_1" target="left_spoke1_3" style="edgeStyle=orthogonalEdgeStyle;rounded=1;strokeColor=#0078D4;strokeWidth=2;endArrow=block;startArrow=block;" parent="1">
          <mxGeometry relative="1" as="geometry">
            <Array as="points">
              <mxPoint x="2370" y="395"/>
            </Array>
          </mxGeometry>
        </mxCell>
        <mxCell id="left_spoke1_4_group" value="" style="group" vertex="1" connectable="0" parent="1">
          <mxGeometry x="1820" y="470" width="400" height="70" as="geometry"/>
        </mxCell>
        <mxCell id="left_spoke1_4" style="shape=rectangle;rounded=0;whiteSpace=wrap;html=1;strokeColor=#CC6600;fontColor=#CC6600;fillColor=#f2f7fc;verticalAlign=top;align=left" vertex="1" parent="left_spoke1_4_group" value="Subscription: Spoke25-Subscription&#10;spoke25-vnet&#10;10.25.0.0/16">
          <mxGeometry x="0" y="0" width="400" height="50" as="geometry"/>
        </mxCell>
        <mxCell id="left_spoke1_4_image" style="shape=image;html=1;image=img/lib/azure2/networking/Virtual_Networks.svg;" vertex="1" parent="left_spoke1_4">
          <mxGeometry x="374" y="3.39" width="20" height="20" as="geometry"/>
        </mxCell>
        <mxCell id="edge_left_1_4" edge="1" source="hub_1" target="left_spoke1_4" style="edgeStyle=orthogonalEdgeStyle;rounded=1;strokeColor=#0078D4;strokeWidth=2;endArrow=block;startArrow=block;" parent="1">
          <mxGeometry relative="1" as="geometry">
            <Array as="points">
              <mxPoint x="2370" y="495"/>
            </Array>
          </mxGeometry>
        </mxCell>
        <mxCell id="left_spoke1_5_group" value="" style="group" vertex="1" connectable="0" parent="1">
          <mxGeometry x="1820" y="570" width="400" height="70" as="geometry"/>
        </mxCell>
        <mxCell id="left_spoke1_5" style="shape=rectangle;rounded=0;whiteSpace=wrap;html=1;strokeColor=#CC6600;fontColor=#CC6600;fillColor=#f2f7fc;verticalAlign=top;align=left" vertex="1" parent="left_spoke1_5_group" value="Subscription: Spoke26-Subscription&#10;spoke26-vnet&#10;10.26.0.0/16">
          <mxGeometry x="0" y="0" width="400" height="50" as="geometry"/>
        </mxCell>
        <mxCell id="left_spoke1_5_image" style="shape=image;html=1;image=img/lib/azure2/networking/Virtual_Networks.svg;" vertex="1" parent="left_spoke1_5">
          <mxGeometry x="374" y="3.39" width="20" height="20" as="geometry"/>
        </mxCell>
        <mxCell id="left_spoke1_5_vpn_image" style="shape=image;html=1;image=img/lib/azure2/networking/Virtual_Network_Gateways.svg;" vertex="1" parent="left_spoke1_5">
          <mxGeometry x="349" y="3.39" width="20" height="20" as="geometry"/>
        </mxCell>
        <mxCell id="edge_left_1_5" edge="1" source="hub_1" target="left_spoke1_5" style="edgeStyle=orthogonalEdgeStyle;rounded=1;strokeColor=#0078D4;strokeWidth=2;endArrow=block;startArrow=block;" parent="1">
          <mxGeometry relative="1" as="geometry">
            <Array as="points">
              <mxPoint x="2370" y="595"/>
            </Array>
          </mxGeometry>
        </mxCell>
        <mxCell id="nonpeered_spoke0_group" value="" style="group" vertex="1" connectable="0" parent="1">
          <mxGeometry x="20" y="1220" width="400" height="70" as="geometry"/>
        </mxCell>
        <mxCell id="nonpeered_spoke0" style="shape=rectangle;rounded=0;whiteSpace=wrap;html=1;strokeColor=gray;fontColor=gray;fillColor=#f5f5f5;verticalAlign=top;align=left" vertex="1" parent="nonpeered_spoke0_group" value="Subscription: Unpeered1-Subscription&#10;unpeered1-vnet&#10;10.51.0.0/16">
          <mxGeometry x="0" y="0" width="400" height="50" as="geometry"/>
        </mxCell>
        <mxCell id="nonpeered_spoke0_image" style="shape=image;html=1;image=img/lib/azure2/networking/Virtual_Networks.svg;" vertex="1" parent="nonpeered_spoke0">
          <mxGeometry x="374" y="3.39" width="20" height="20" as="geometry"/>
        </mxCell>
        <mxCell id="nonpeered_spoke1_group" value="" style="group" vertex="1" connectable="0" parent="1">
          <mxGeometry x="470" y="1220" width="400" height="70" as="geometry"/>
        </mxCell>
        <mxCell id="nonpeered_spoke1" style="shape=rectangle;rounded=0;whiteSpace=wrap;html=1;strokeColor=gray;fontColor=gray;fillColor=#f5f5f5;verticalAlign=top;align=left" vertex="1" parent="nonpeered_spoke1_group" value="Subscription: Unpeered2-Subscription&#10;unpeered2-vnet&#10;10.52.0.0/16">
          <mxGeometry x="0" y="0" width="400" height="50" as="geometry"/>
        </mxCell>
        <mxCell id="nonpeered_spoke1_image" style="shape=image;html=1;image=img/lib/azure2/networking/Virtual_Networks.svg;" vertex="1" parent="nonpeered_spoke1">
          <mxGeometry x="374" y="3.39" width="20" height="20" as="geometry"/>
        </mxCell>
        <mxCell id="nonpeered_spoke2_group" value="" style="group" vertex="1" connectable="0" parent="1">
          <mxGeometry x="920" y="1220" width="400" height="70" as="geometry"/>
        </mxCell>
        <mxCell id="nonpeered_spoke2" style="shape=rectangle;rounded=0;whiteSpace=wrap;html=1;strokeColor=gray;fontColor=gray;fillColor=#f5f5f5;verticalAlign=top;align=left" vertex="1" parent="nonpeered_spoke2_group" value="Subscription: Unpeered3-Subscription&#10;unpeered3-vnet&#10;10.53.0.0/16">
          <mxGeometry x="0" y="0" width="400" height="50" as="geometry"/>
        </mxCell>
        <mxCell id="nonpeered_spoke2_image" style="shape=image;html=1;image=img/lib/azure2/networking/Virtual_Networks.svg;" vertex="1" parent="nonpeered_spoke2">
          <mxGeometry x="374" y="3.39" width="20" height="20" as="geometry"/>
        </mxCell>
        <mxCell id="nonpeered_spoke3_group" value="" style="group" vertex="1" connectable="0" parent="1">
          <mxGeometry x="1370" y="1220" width="400" height="70" as="geometry"/>
        </mxCell>
        <mxCell id="nonpeered_spoke3" style="shape=rectangle;rounded=0;whiteSpace=wrap;html=1;strokeColor=gray;fontColor=gray;fillColor=#f5f5f5;verticalAlign=top;align=left" vertex="1" parent="nonpeered_spoke3_group" value="Subscription: Unpeered4-Subscription&#10;unpeered4-vnet&#10;10.54.0.0/16">
          <mxGeometry x="0" y="0" width="400" height="50" as="geometry"/>
        </mxCell>
        <mxCell id="nonpeered_spoke3_image" style="shape=image;html=1;image=img/lib/azure2/networking/Virtual_Networks.svg;" vertex="1" parent="nonpeered_spoke3">
          <mxGeometry x="374" y="3.39" width="20" height="20" as="geometry"/>
        </mxCell>
        <mxCell id="nonpeered_spoke4_group" value="" style="group" vertex="1" connectable="0" parent="1">
          <mxGeometry x="1820" y="1220" width="400" height="70" as="geometry"/>
        </mxCell>
        <mxCell id="nonpeered_spoke4" style="shape=rectangle;rounded=0;whiteSpace=wrap;html=1;strokeColor=gray;fontColor=gray;fillColor=#f5f5f5;verticalAlign=top;align=left" vertex="1" parent="nonpeered_spoke4_group" value="Subscription: Unpeered5-Subscription&#10;unpeered5-vnet&#10;10.55.0.0/16">
          <mxGeometry x="0" y="0" width="400" height="50" as="geometry"/>
        </mxCell>
        <mxCell id="nonpeered_spoke4_image" style="shape=image;html=1;image=img/lib/azure2/networking/Virtual_Networks.svg;" vertex="1" parent="nonpeered_spoke4">
          <mxGeometry x="374" y="3.39" width="20" height="20" as="geometry"/>
        </mxCell>
        <mxCell id="nonpeered_spoke5_group" value="" style="group" vertex="1" connectable="0" parent="1">
          <mxGeometry x="2270" y="1220" width="400" height="70" as="geometry"/>
        </mxCell>
        <mxCell id="nonpeered_spoke5" style="shape=rectangle;rounded=0;whiteSpace=wrap;html=1;strokeColor=gray;fontColor=gray;fillColor=#f5f5f5;verticalAlign=top;align=left" vertex="1" parent="nonpeered_spoke5_group" value="Subscription: Unpeered6-Subscription&#10;unpeered6-vnet&#10;10.56.0.0/16">
          <mxGeometry x="0" y="0" width="400" height="50" as="geometry"/>
        </mxCell>
        <mxCell id="nonpeered_spoke5_image" style="shape=image;html=1;image=img/lib/azure2/networking/Virtual_Networks.svg;" vertex="1" parent="nonpeered_spoke5">
          <mxGeometry x="374" y="3.39" width="20" height="20" as="geometry"/>
        </mxCell>
        <mxCell id="nonpeered_spoke6_group" value="" style="group" vertex="1" connectable="0" parent="1">
          <mxGeometry x="20" y="1290" width="400" height="70" as="geometry"/>
        </mxCell>
        <mxCell id="nonpeered_spoke6" style="shape=rectangle;rounded=0;whiteSpace=wrap;html=1;strokeColor=gray;fontColor=gray;fillColor=#f5f5f5;verticalAlign=top;align=left" vertex="1" parent="nonpeered_spoke6_group" value="Subscription: Unpeered7-Subscription&#10;unpeered7-vnet&#10;10.57.0.0/16">
          <mxGeometry x="0" y="0" width="400" height="50" as="geometry"/>
        </mxCell>
        <mxCell id="nonpeered_spoke6_image" style="shape=image;html=1;image=img/lib/azure2/networking/Virtual_Networks.svg;" vertex="1" parent="nonpeered_spoke6">
          <mxGeometry x="374" y="3.39" width="20" height="20" as="geometry"/>
        </mxCell>
        <mxCell id="nonpeered_spoke7_group" value="" style="group" vertex="1" connectable="0" parent="1">
          <mxGeometry x="470" y="1290" width="400" height="70" as="geometry"/>
        </mxCell>
        <mxCell id="nonpeered_spoke7" style="shape=rectangle;rounded=0;whiteSpace=wrap;html=1;strokeColor=gray;fontColor=gray;fillColor=#f5f5f5;verticalAlign=top;align=left" vertex="1" parent="nonpeered_spoke7_group" value="Subscription: Unpeered8-Subscription&#10;unpeered8-vnet&#10;10.58.0.0/16">
          <mxGeometry x="0" y="0" width="400" height="50" as="geometry"/>
        </mxCell>
        <mxCell id="nonpeered_spoke7_image" style="shape=image;html=1;image=img/lib/azure2/networking/Virtual_Networks.svg;" vertex="1" parent="nonpeered_spoke7">
          <mxGeometry x="374" y="3.39" width="20" height="20" as="geometry"/>
        </mxCell>
        <mxCell id="nonpeered_spoke8_group" value="" style="group" vertex="1" connectable="0" parent="1">
          <mxGeometry x="920" y="1290" width="400" height="70" as="geometry"/>
        </mxCell>
        <mxCell id="nonpeered_spoke8" style="shape=rectangle;rounded=0;whiteSpace=wrap;html=1;strokeColor=gray;fontColor=gray;fillColor=#f5f5f5;verticalAlign=top;align=left" vertex="1" parent="nonpeered_spoke8_group" value="Subscription: Unpeered9-Subscription&#10;unpeered9-vnet&#10;10.59.0.0/16">
          <mxGeometry x="0" y="0" width="400" height="50" as="geometry"/>
        </mxCell>
        <mxCell id="nonpeered_spoke8_image" style="shape=image;html=1;image=img/lib/azure2/networking/Virtual_Networks.svg;" vertex="1" parent="nonpeered_spoke8">
          <mxGeometry x="374" y="3.39" width="20" height="20" as="geometry"/>
        </mxCell>
        <mxCell id="nonpeered_spoke9_group" value="" style="group" vertex="1" connectable="0" parent="1">
          <mxGeometry x="1370" y="1290" width="400" height="70" as="geometry"/>
        </mxCell>
        <mxCell id="nonpeered_spoke9" style="shape=rectangle;rounded=0;whiteSpace=wrap;html=1;strokeColor=gray;fontColor=gray;fillColor=#f5f5f5;verticalAlign=top;align=left" vertex="1" parent="nonpeered_spoke9_group" value="Subscription: Unpeered10-Subscription&#10;unpeered10-vnet&#10;10.60.0.0/16">
          <mxGeometry x="0" y="0" width="400" height="50" as="geometry"/>
        </mxCell>
        <mxCell id="nonpeered_spoke9_image" style="shape=image;html=1;image=img/lib/azure2/networking/Virtual_Networks.svg;" vertex="1" parent="nonpeered_spoke9">
          <mxGeometry x="374" y="3.39" width="20" height="20" as="geometry"/>
        </mxCell>
        <mxCell id="nonpeered_spoke10_group" value="" style="group" vertex="1" connectable="0" parent="1">
          <mxGeometry x="1820" y="1290" width="400" height="70" as="geometry"/>
        </mxCell>
        <mxCell id="nonpeered_spoke10" style="shape=rectangle;rounded=0;whiteSpace=wrap;html=1;strokeColor=gray;fontColor=gray;fillColor=#f5f5f5;verticalAlign=top;align=left" vertex="1" parent="nonpeered_spoke10_group" value="Subscription: Unpeered11-Subscription&#10;unpeered11-vnet&#10;10.61.0.0/16">
          <mxGeometry x="0" y="0" width="400" height="50" as="geometry"/>
        </mxCell>
        <mxCell id="nonpeered_spoke10_image" style="shape=image;html=1;image=img/lib/azure2/networking/Virtual_Networks.svg;" vertex="1" parent="nonpeered_spoke10">
          <mxGeometry x="374" y="3.39" width="20" height="20" as="geometry"/>
        </mxCell>
        <mxCell id="nonpeered_spoke11_group" value="" style="group" vertex="1" connectable="0" parent="1">
          <mxGeometry x="2270" y="1290" width="400" height="70" as="geometry"/>
        </mxCell>
        <mxCell id="nonpeered_spoke11" style="shape=rectangle;rounded=0;whiteSpace=wrap;html=1;strokeColor=gray;fontColor=gray;fillColor=#f5f5f5;verticalAlign=top;align=left" vertex="1" parent="nonpeered_spoke11_group" value="Subscription: Unpeered12-Subscription&#10;unpeered12-vnet&#10;10.62.0.0/16">
          <mxGeometry x="0" y="0" width="400" height="50" as="geometry"/>
        </mxCell>
        <mxCell id="nonpeered_spoke11_image" style="shape=image;html=1;image=img/lib/azure2/networking/Virtual_Networks.svg;" vertex="1" parent="nonpeered_spoke11">
          <mxGeometry x="374" y="3.39" width="20" height="20" as="geometry"/>
        </mxCell>
        <mxCell id="nonpeered_spoke12_group" value="" style="group" vertex="1" connectable="0" parent="1">
          <mxGeometry x="20" y="1360" width="400" height="70" as="geometry"/>
        </mxCell>
        <mxCell id="nonpeered_spoke12" style="shape=rectangle;rounded=0;whiteSpace=wrap;html=1;strokeColor=gray;fontColor=gray;fillColor=#f5f5f5;verticalAlign=top;align=left" vertex="1" parent="nonpeered_spoke12_group" value="Subscription: Unpeered13-Subscription&#10;unpeered13-vnet&#10;10.63.0.0/16">
          <mxGeometry x="0" y="0" width="400" height="50" as="geometry"/>
        </mxCell>
        <mxCell id="nonpeered_spoke12_image" style="shape=image;html=1;image=img/lib/azure2/networking/Virtual_Networks.svg;" vertex="1" parent="nonpeered_spoke12">
          <mxGeometry x="374" y="3.39" width="20" height="20" as="geometry"/>
        </mxCell>
        <mxCell id="nonpeered_spoke13_group" value="" style="group" vertex="1" connectable="0" parent="1">
          <mxGeometry x="470" y="1360" width="400" height="70" as="geometry"/>
        </mxCell>
        <mxCell id="nonpeered_spoke13" style="shape=rectangle;rounded=0;whiteSpace=wrap;html=1;strokeColor=gray;fontColor=gray;fillColor=#f5f5f5;verticalAlign=top;align=left" vertex="1" parent="nonpeered_spoke13_group" value="Subscription: Unpeered14-Subscription&#10;unpeered14-vnet&#10;10.64.0.0/16">
          <mxGeometry x="0" y="0" width="400" height="50" as="geometry"/>
        </mxCell>
        <mxCell id="nonpeered_spoke13_image" style="shape=image;html=1;image=img/lib/azure2/networking/Virtual_Networks.svg;" vertex="1" parent="nonpeered_spoke13">
          <mxGeometry x="374" y="3.39" width="20" height="20" as="geometry"/>
        </mxCell>
        <mxCell id="nonpeered_spoke14_group" value="" style="group" vertex="1" connectable="0" parent="1">
          <mxGeometry x="920" y="1360" width="400" height="70" as="geometry"/>
        </mxCell>
        <mxCell id="nonpeered_spoke14" style="shape=rectangle;rounded=0;whiteSpace=wrap;html=1;strokeColor=gray;fontColor=gray;fillColor=#f5f5f5;verticalAlign=top;align=left" vertex="1" parent="nonpeered_spoke14_group" value="Subscription: Unpeered15-Subscription&#10;unpeered15-vnet&#10;10.65.0.0/16">
          <mxGeometry x="0" y="0" width="400" height="50" as="geometry"/>
        </mxCell>
        <mxCell id="nonpeered_spoke14_image" style="shape=image;html=1;image=img/lib/azure2/networking/Virtual_Networks.svg;" vertex="1" parent="nonpeered_spoke14">
          <mxGeometry x="374" y="3.39" width="20" height="20" as="geometry"/>
        </mxCell>
        <mxCell id="nonpeered_spoke15_group" value="" style="group" vertex="1" connectable="0" parent="1">
          <mxGeometry x="1370" y="1360" width="400" height="70" as="geometry"/>
        </mxCell>
        <mxCell id="nonpeered_spoke15" style="shape=rectangle;rounded=0;whiteSpace=wrap;html=1;strokeColor=gray;fontColor=gray;fillColor=#f5f5f5;verticalAlign=top;align=left" vertex="1" parent="nonpeered_spoke15_group" value="Subscription: Unpeered16-Subscription&#10;unpeered16-vnet&#10;10.66.0.0/16">
          <mxGeometry x="0" y="0" width="400" height="50" as="geometry"/>
        </mxCell>
        <mxCell id="nonpeered_spoke15_image" style="shape=image;html=1;image=img/lib/azure2/networking/Virtual_Networks.svg;" vertex="1" parent="nonpeered_spoke15">
          <mxGeometry x="374" y="3.39" width="20" height="20" as="geometry"/>
        </mxCell>
        <mxCell id="nonpeered_spoke16_group" value="" style="group" vertex="1" connectable="0" parent="1">
          <mxGeometry x="1820" y="1360" width="400" height="70" as="geometry"/>
        </mxCell>
        <mxCell id="nonpeered_spoke16" style="shape=rectangle;rounded=0;whiteSpace=wrap;html=1;strokeColor=gray;fontColor=gray;fillColor=#f5f5f5;verticalAlign=top;align=left" vertex="1" parent="nonpeered_spoke16_group" value="Subscription: Unpeered17-Subscription&#10;unpeered17-vnet&#10;10.67.0.0/16">
          <mxGeometry x="0" y="0" width="400" height="50" as="geometry"/>
        </mxCell>
        <mxCell id="nonpeered_spoke16_image" style="shape=image;html=1;image=img/lib/azure2/networking/Virtual_Networks.svg;" vertex="1" parent="nonpeered_spoke16">
          <mxGeometry x="374" y="3.39" width="20" height="20" as="geometry"/>
        </mxCell>
        <mxCell id="nonpeered_spoke17_group" value="" style="group" vertex="1" connectable="0" parent="1">
          <mxGeometry x="2270" y="1360" width="400" height="70" as="geometry"/>
        </mxCell>
        <mxCell id="nonpeered_spoke17" style="shape=rectangle;rounded=0;whiteSpace=wrap;html=1;strokeColor=gray;fontColor=gray;fillColor=#f5f5f5;verticalAlign=top;align=left" vertex="1" parent="nonpeered_spoke17_group" value="Subscription: Unpeered18-Subscription&#10;unpeered18-vnet&#10;10.68.0.0/16">
          <mxGeometry x="0" y="0" width="400" height="50" as="geometry"/>
        </mxCell>
        <mxCell id="nonpeered_spoke17_image" style="shape=image;html=1;image=img/lib/azure2/networking/Virtual_Networks.svg;" vertex="1" parent="nonpeered_spoke17">
          <mxGeometry x="374" y="3.39" width="20" height="20" as="geometry"/>
        </mxCell>
        <mxCell id="nonpeered_spoke18_group" value="" style="group" vertex="1" connectable="0" parent="1">
          <mxGeometry x="20" y="1430" width="400" height="70" as="geometry"/>
        </mxCell>
        <mxCell id="nonpeered_spoke18" style="shape=rectangle;rounded=0;whiteSpace=wrap;html=1;strokeColor=gray;fontColor=gray;fillColor=#f5f5f5;verticalAlign=top;align=left" vertex="1" parent="nonpeered_spoke18_group" value="Subscription: Unpeered19-Subscription&#10;unpeered19-vnet&#10;10.69.0.0/16">
          <mxGeometry x="0" y="0" width="400" height="50" as="geometry"/>
        </mxCell>
        <mxCell id="nonpeered_spoke18_image" style="shape=image;html=1;image=img/lib/azure2/networking/Virtual_Networks.svg;" vertex="1" parent="nonpeered_spoke18">
          <mxGeometry x="374" y="3.39" width="20" height="20" as="geometry"/>
        </mxCell>
        <mxCell id="peering_edge_1000" edge="1" source="left_spoke0_0" target="left_spoke0_1" style="edgeStyle=orthogonalEdgeStyle;rounded=1;strokeColor=#0078D4;strokeWidth=2;endArrow=block;startArrow=block;" parent="1">
          <mxGeometry relative="1" as="geometry"/>
        </mxCell>
        <mxCell id="peering_edge_1001" edge="1" source="left_spoke0_1" target="left_spoke0_0" style="edgeStyle=orthogonalEdgeStyle;rounded=1;strokeColor=#0078D4;strokeWidth=2;endArrow=block;startArrow=block;" parent="1">
          <mxGeometry relative="1" as="geometry"/>
        </mxCell>
        <mxCell id="peering_edge_1002" edge="1" source="left_spoke0_2" target="left_spoke0_3" style="edgeStyle=orthogonalEdgeStyle;rounded=1;strokeColor=#0078D4;strokeWidth=2;endArrow=block;startArrow=block;" parent="1">
          <mxGeometry relative="1" as="geometry"/>
        </mxCell>
        <mxCell id="peering_edge_1003" edge="1" source="left_spoke0_3" target="left_spoke0_2" style="edgeStyle=orthogonalEdgeStyle;rounded=1;strokeColor=#0078D4;strokeWidth=2;endArrow=block;startArrow=block;" parent="1">
          <mxGeometry relative="1" as="geometry"/>
        </mxCell>
        <mxCell id="peering_edge_1004" edge="1" source="left_spoke0_9" target="right_spoke0_2" style="edgeStyle=orthogonalEdgeStyle;rounded=1;strokeColor=#0078D4;strokeWidth=2;endArrow=block;startArrow=block;" parent="1">
          <mxGeometry relative="1" as="geometry"/>
        </mxCell>
        <mxCell id="peering_edge_1005" edge="1" source="left_spoke0_9" target="right_spoke0_8" style="edgeStyle=orthogonalEdgeStyle;rounded=1;strokeColor=#0078D4;strokeWidth=2;endArrow=block;startArrow=block;" parent="1">
          <mxGeometry relative="1" as="geometry"/>
        </mxCell>
        <mxCell id="peering_edge_1006" edge="1" source="right_spoke0_2" target="left_spoke0_9" style="edgeStyle=orthogonalEdgeStyle;rounded=1;strokeColor=#0078D4;strokeWidth=2;endArrow=block;startArrow=block;" parent="1">
          <mxGeometry relative="1" as="geometry"/>
        </mxCell>
        <mxCell id="peering_edge_1007" edge="1" source="right_spoke0_8" target="left_spoke0_9" style="edgeStyle=orthogonalEdgeStyle;rounded=1;strokeColor=#0078D4;strokeWidth=2;endArrow=block;startArrow=block;" parent="1">
          <mxGeometry relative="1" as="geometry"/>
        </mxCell>
        <mxCell id="peering_edge_1008" edge="1" source="left_spoke1_0" target="left_spoke1_1" style="edgeStyle=orthogonalEdgeStyle;rounded=1;strokeColor=#0078D4;strokeWidth=2;endArrow=block;startArrow=block;" parent="1">
          <mxGeometry relative="1" as="geometry"/>
        </mxCell>
        <mxCell id="peering_edge_1009" edge="1" source="left_spoke1_1" target="left_spoke1_0" style="edgeStyle=orthogonalEdgeStyle;rounded=1;strokeColor=#0078D4;strokeWidth=2;endArrow=block;startArrow=block;" parent="1">
          <mxGeometry relative="1" as="geometry"/>
        </mxCell>
        <mxCell id="peering_edge_1010" edge="1" source="left_spoke1_1" target="right_spoke1_3" style="edgeStyle=orthogonalEdgeStyle;rounded=1;strokeColor=#0078D4;strokeWidth=2;endArrow=block;startArrow=block;" parent="1">
          <mxGeometry relative="1" as="geometry"/>
        </mxCell>
        <mxCell id="peering_edge_1011" edge="1" source="left_spoke1_2" target="left_spoke1_3" style="edgeStyle=orthogonalEdgeStyle;rounded=1;strokeColor=#0078D4;strokeWidth=2;endArrow=block;startArrow=block;" parent="1">
          <mxGeometry relative="1" as="geometry"/>
        </mxCell>
        <mxCell id="peering_edge_1012" edge="1" source="left_spoke1_3" target="left_spoke1_2" style="edgeStyle=orthogonalEdgeStyle;rounded=1;strokeColor=#0078D4;strokeWidth=2;endArrow=block;startArrow=block;" parent="1">
          <mxGeometry relative="1" as="geometry"/>
        </mxCell>
        <mxCell id="peering_edge_1013" edge="1" source="left_spoke1_5" target="right_spoke1_3" style="edgeStyle=orthogonalEdgeStyle;rounded=1;strokeColor=#0078D4;strokeWidth=2;endArrow=block;startArrow=block;" parent="1">
          <mxGeometry relative="1" as="geometry"/>
        </mxCell>
        <mxCell id="peering_edge_1014" edge="1" source="right_spoke1_3" target="left_spoke1_1" style="edgeStyle=orthogonalEdgeStyle;rounded=1;strokeColor=#0078D4;strokeWidth=2;endArrow=block;startArrow=block;" parent="1">
          <mxGeometry relative="1" as="geometry"/>
        </mxCell>
        <mxCell id="peering_edge_1015" edge="1" source="right_spoke1_3" target="left_spoke1_5" style="edgeStyle=orthogonalEdgeStyle;rounded=1;strokeColor=#0078D4;strokeWidth=2;endArrow=block;startArrow=block;" parent="1">
          <mxGeometry relative="1" as="geometry"/>
        </mxCell>
      </root>
    </mxGraphModel>
  </diagram>
</mxfile>
